
<svg height="60" width="42.213" xmlns="http://www.w3.org/2000/svg">
  <path
     style="fill:#cccccc"
     d="M 13.917326,0.00396511 C 10.091412,0.15751939 5.5867458,0.41290818 2.8869416,3.507844 1.1790727,6.1190094 1.2876934,9.7211654 2.5030645,12.517616 c 0.8078704,2.915288 5.4633651,4.303676 6.4425283,5.191429 -6.7698479,3.686693 -10.4151855,12.14102 -8.41720048,19.58938 8.49065228,1.26934 17.07030268,5.474063 21.46814468,13.150664 1.462842,2.403836 2.324157,5.113096 2.847563,7.855156 1.250666,3.294534 6.266278,1.175386 5.163918,-1.992728 -0.351358,-4.083698 0.215768,-9.171999 4.166309,-11.384871 1.406238,-1.752565 5.112804,0.206482 5.427643,-1.931804 1.508619,-7.264269 3.489767,-14.669399 2.219643,-22.129861 C 40.846722,13.531853 36.14434,6.8804506 29.528285,3.5640162 24.747476,1.049228 19.311234,-0.15175803 13.917326,0.00396511 Z" />
</svg>
