<svg xmlns="http://www.w3.org/2000/svg" width="600" height="60" viewBox="0 0 600 60"><path d="M8.104294 27.674976l-.26978.701425h7.553873L7.564732 49.90495h9.226517q4.640235 0 6.31288-4.640238l6.15101-16.88831h2.913637q4.640237 0 6.31288-4.694187l.26978-.701435h-7.553872l2.374074-6.474744h2.913637q4.640237 0 6.366836-4.694196l.26978-.701436H26.287548q-4.640236 0-6.31288 4.694196l-2.643855 7.17618h-2.913638q-4.640237 0-6.31288 4.694196zm-1.025168-.377697q1.942424-5.395623 7.338048-5.395623h2.15825l2.374074-6.474754q1.942425-5.39562 7.33805-5.39562h18.34512l-.755387 2.158254q-1.99638 5.39562-7.392003 5.39562h-2.15825l-1.56473 4.3165h7.553873l-.809344 2.158245q-1.942424 5.395632-7.33805 5.395632H30.01053l-5.88123 16.186864q-1.942425 5.395632-7.33805 5.395632H6l7.823656-21.582496H6.269782l.809344-2.158255zM51.053462 20.822535q-4.640237 0-6.366837 4.694186l-8.848823 24.38823h9.226517q4.640236 0 6.31288-4.640238l6.96035-19.046555h14.784014q4.424416 0 6.31288-4.694197l.26978-.701425h-10.30564q-6.798482 0-11.330815 6.097058l2.212213-6.097058h-9.22652zm0-1.079133h10.791246l-2.751764 7.553877q2.751764-7.553878 10.30564-7.553878H81.26896l-.809342 2.158255q-2.158255 5.395622-7.338054 5.395622h-14.02862l-6.690576 18.345118q-1.942426 5.395632-7.33805 5.395632H34.273072l9.388387-25.898995q1.99638-5.395633 7.392005-5.395633z" style="fill:#000000"/><path d="M90.765258 20.822535q-4.640238 0-6.366838 4.694186l-.26978.701437h16.83434q4.80211 0 3.07551 4.694196l-.64747 1.780547H86.44876q-4.64024 0-6.36684 4.694196L75.49564 49.90495h30.86296q4.64024 0 6.31289-4.640238l8.90278-24.442177H90.765258zm2.26616 19.046555l.701425-1.780558h7.715747l-2.42803 6.474744h-2.91364q-4.8021 0-3.0755-4.694186zm-2.26616-20.125688h32.373732l-9.44233 25.898996q-1.94243 5.395632-7.33806 5.395632H73.984864l5.071882-14.02863q1.99638-5.395622 7.392013-5.395622h16.18686l.3777-1.079122q1.18704-3.237377-2.05034-3.237377H82.617862l.755383-2.158245q1.99638-5.395633 7.392013-5.395633zm3.291324 20.503374q-1.187038 3.237378 2.05034 3.237378h2.158254l1.618683-4.3165h-5.395622l-.431656 1.079122zM117.63546 49.90495h9.22651q4.64024 0 6.31288-4.640238l6.96036-19.046555h2.91364q4.8021 0 3.0755 4.694196l-6.9064 18.992597h9.22652q4.64024 0 6.31288-4.640238l8.90278-24.442177h-30.80902q-4.64022 0-6.36682 4.694186l-8.84883 24.38823zm-1.56473 1.13308l9.38838-25.898995q1.99638-5.395633 7.392-5.395633h32.37375l-9.44234 25.898996q-1.94243 5.395632-7.33805 5.395632h-10.79124l7.44596-20.503374q1.18704-3.237377-2.05034-3.237377h-2.15826l-6.69056 18.345118q-1.94244 5.395632-7.33806 5.395632h-10.79124zM173.91182 20.822535q-3.56112 0-5.23376 4.694186l-8.90278 24.38823h28.65076q4.58628.161863 5.9352-3.561116l.64746-1.780558h-15.70126q-4.8021 0-3.0755-4.694186l4.96396-13.650933h15.86314q4.64024 0 6.31288-4.694197l.26978-.701425h-29.72988zm0-1.079133h31.29462l-.80934 2.158255q-1.94243 5.395622-7.33806 5.395622H181.9513l-4.6942 12.949496q-1.18704 3.237378 2.05034 3.237378h17.266l-1.18704 3.237377q-1.61868 4.532322-6.96036 4.3165h-30.21549l9.44234-25.898995q1.94243-5.395633 6.25893-5.395633zM208.49777 25.51672l-8.84883 24.38823h30.80901q4.64024 0 6.31288-4.640238l8.90278-24.442177H214.8646q-4.58628-.161875-6.36683 4.694186zm13.65092.701437h2.91364q4.8021 0 3.07551 4.694196l-5.01793 13.650923h-2.91364q-4.8021 0-3.0755-4.694186l5.01792-13.650933zm-14.67609-1.079122q2.05034-5.611455 7.392-5.395633h32.37375l-9.44234 25.898996q-1.94243 5.395632-7.33806 5.395632h-32.37373l9.38838-25.898995zm15.43148 2.158244l-4.74815 12.949496q-1.18703 3.237378 2.05034 3.237378h2.15825l4.74815-12.949498q1.18704-3.237377-2.05034-3.237377h-2.15825zM256.95047 20.822535q-4.47836 0-6.36684 4.694186l-8.84882 24.38823h9.22652q4.64024 0 6.31288-4.640238l8.90278-24.442177h-9.22652zm3.50716-11.870375h12.30202l-1.24099 3.615063q-2.53595 6.097057-8.41718 6.097057h-12.35597l1.3489-3.615063q2.2122-6.097057 8.36322-6.097057zm-3.50716 10.791242h10.79125l-9.44235 25.898996q-1.94242 5.395632-7.33804 5.395632h-10.79126l9.3884-25.898995q2.2122-5.395633 7.392-5.395633zm3.50716-9.71212q-5.39562 0-7.33806 5.39562l-.80934 2.158256h10.79125q5.1798 0 7.39201-5.39562l.75538-2.158256h-10.79124zM277.45384 20.822535q-4.64024 0-6.36683 4.694186l-4.58628 12.571812h16.83434q4.80211 0 3.07551 4.694186l-.70144 1.780558h-16.94225q-4.64024 0-6.31288 4.640238l-.26978.701436h30.86297q4.64024 0 6.31288-4.640238l4.58628-12.571812h-16.7804q-4.74814 0-3.12946-4.694185l.70144-1.780558h16.94226q4.64023 0 6.31288-4.694197l.26978-.701425h-30.80902zm0-1.079133h32.37374l-.80934 2.158255q-1.94242 5.395622-7.33804 5.395622h-16.18688l-.43165 1.07912q-1.13308 3.237378 2.10429 3.237378h18.34512l-5.12584 14.02862q-1.94242 5.395632-7.33804 5.395632h-32.37375l.75539-2.158255q1.94242-5.39562 7.33805-5.39562h16.18687l.43165-1.079123q1.18703-3.237378-2.05034-3.237378h-18.34512l5.07189-14.02862q1.99638-5.395632 7.392-5.395632z" style="fill:#000000;fill-opacity:1"/><path d="M318.00087 27.297277q-4.64023 0-6.31288 4.694196l-.26978.701425h30.86297q4.64024 0 6.31288-4.694185l.26978-.701436h-30.86297zm0-1.079122h32.37375l-.75539 2.158244q-1.94242 5.39563-7.33805 5.39563h-32.37374l.75539-2.158254q1.94242-5.39562 7.33804-5.39562z" style="fill:#000000;fill-opacity:0.6"/><path d="M355.83715 25.51672l-8.84882 24.38823h30.80901q4.64024 0 6.31288-4.640238l8.90278-24.442177h-9.22652q-4.85606 0-6.36684 4.694186l-6.96035 19.046556h-2.91363q-4.80211 0-3.07551-4.694186l6.96035-19.046555h-9.22651q-4.64024 0-6.36684 4.694186zm-1.02517-.377685q1.99638-5.395633 7.39201-5.395633h10.79125l-7.49992 20.503374q-1.18704 3.237378 2.05034 3.237378h2.15824l6.69058-18.34512q1.78056-5.395632 7.392-5.395632h10.79126l-9.44236 25.898996q-1.94242 5.395632-7.33804 5.395632h-32.37375l9.38839-25.898995zM404.28986 20.822535q-4.47837 0-6.36684 4.694186l-8.84882 24.38823h9.22652q4.64023 0 6.31287-4.640238l8.90278-24.442177h-9.22651zm3.50715-11.870375h12.30202l-1.24099 3.615063q-2.53594 6.097057-8.41717 6.097057h-12.35599l1.34892-3.615063q2.2122-6.097057 8.36321-6.097057zm-3.50715 10.791242h10.79124l-9.44234 25.898996q-1.94242 5.395632-7.33804 5.395632h-10.79126l9.38839-25.898995q2.21221-5.395633 7.39201-5.395633zm3.50715-9.71212q-5.39562 0-7.33805 5.39562l-.80934 2.158256h10.79125q5.1798 0 7.392-5.39562l.75539-2.158256h-10.79125zM459.10939 11.110404h-9.22652q-4.64022 0-6.31288 4.694196l-1.8345 5.017935h-16.94226q-4.64024 0-6.36684 4.694186l-8.84882 24.38823h30.809q4.42442 0 6.3129-4.640238l12.40992-34.154308zm-19.31632 15.107753l-6.74454 18.34512h-2.91364q-4.8021 0-3.0755-4.694187l5.01792-13.650933h7.71576zm20.88106-16.186875l-12.9495 35.611116q-2.15826 5.395632-7.33806 5.395632h-32.37373l9.38838-25.898995q1.99638-5.395633 7.39201-5.395633h16.18686l1.56474-4.3165q1.94242-5.39562 7.33804-5.39562h10.79126zm-22.4458 17.265997h-5.39562l-4.74816 12.949496q-1.18703 3.237378 2.05034 3.237378h2.15826l5.93518-16.186875zM466.87909 20.822535q-4.47836 0-6.36683 4.694186l-8.84883 24.38823h9.22652q4.64024 0 6.31288-4.640238l8.90278-24.442177h-9.22652zm3.50716-11.870375h12.30202l-1.24099 3.615063q-2.53594 6.097057-8.41718 6.097057h-12.35597l1.3489-3.615063q2.21221-6.097057 8.36322-6.097057zm-3.50716 10.791242h10.79125L468.228 45.642398q-1.94243 5.395632-7.33805 5.395632h-10.79124l9.38838-25.898995q2.2122-5.395633 7.392-5.395633zm3.50716-9.71212q-5.39562 0-7.33805 5.39562l-.80934 2.158256h10.79124q5.1798 0 7.39201-5.39562l.75539-2.158256h-10.79125zM487.43642 20.822535q-4.64024 0-6.31288 4.694186l-.26978.701437h7.55388l-8.633 23.686793h9.22652q4.58628.161863 6.31288-4.640238l6.96034-19.046555h2.91364q3.56112 0 5.23376-4.694197l.26978-.701425h-6.47474l3.5611-9.71213h-9.22652q-4.64024 0-6.36683 4.694195l-1.83451 5.017935h-2.91364zm0-1.079133h2.15825l1.56473-4.3165q1.99638-5.39562 7.392-5.39562h10.79126l-3.56112 9.71212h6.47475l-.80934 2.158255q-1.94243 5.395622-6.25893 5.395622h-2.15824l-6.69058 18.345118q-1.99638 5.611454-7.33804 5.395632H478.2099l8.633-23.74075h-7.55387l.80934-2.158245q1.94243-5.395633 7.33805-5.395633z" style="fill:#000000;fill-opacity:1"/><path d="M512.83039 46.72153l1.67264-4.694198q.64747-1.780558-1.02517-1.780558h-4.64024l-1.7266 4.694197q-.64747 1.78056 1.29495 1.78056h4.42442zm.75538 1.07912h-5.1798q-3.4532 0-2.32011-3.237377l1.99638-5.39562h5.39562q3.23737 0 2.05034 3.237376l-1.94243 5.39562zM520.83534 27.674974l-.26978.701425h7.55387l-7.82366 21.528547h9.22652q4.64024 0 6.31288-4.640238l6.15101-16.88831h2.91364q4.64024 0 6.31288-4.694187l.26978-.701436h-7.55387l2.37407-6.474743h2.91364q4.64024 0 6.36684-4.694196l.26978-.701436h-16.83435q-4.64024 0-6.31288 4.694196l-2.64386 7.17618h-2.91363q-4.64024 0-6.31288 4.694196zm-1.02517-.377697q1.94242-5.395622 7.33805-5.395622h2.15825l2.37407-6.474754q1.94243-5.39562 7.33805-5.39562h18.34512l-.75539 2.158255q-1.99638 5.39562-7.392 5.39562h-2.15825l-1.56473 4.3165h7.55387l-.80934 2.158244q-1.94243 5.395632-7.33805 5.395632h-2.15825l-5.88123 16.186863q-1.94242 5.395633-7.33805 5.395633h-10.79125l7.82366-21.582496h-7.55388l.80935-2.158255zM563.7845 20.822533q-4.64023 0-6.36683 4.694186l-8.84883 24.388227h9.22652q4.64024 0 6.31288-4.640238l6.96035-19.046555h14.78402q4.42441 0 6.31288-4.694197l.26978-.701425h-10.30564q-6.79849 0-11.33082 6.097057l2.21222-6.097057h-9.22653zm0-1.079133h10.79125l-2.75176 7.553877q2.75176-7.553877 10.30564-7.553877H594l-.80934 2.158255q-2.15825 5.395622-7.33805 5.395622h-14.02862l-6.69058 18.345118q-1.94243 5.395633-7.33805 5.395633h-10.79125l9.38839-25.898996q1.99638-5.395632 7.392-5.395632z" style="fill:#000000;fill-opacity:0.6"/></svg>